<svg width="64" height="64" viewBox="0 0 64 64" fill="none" xmlns="http://www.w3.org/2000/svg">
<circle cx="32" cy="32" r="32" fill="#3C3C3C"/>
<path fill-rule="evenodd" clip-rule="evenodd" d="M36.899 12.0503C34.1653 9.31658 29.7331 9.31658 26.9995 12.0503L11.6558 27.3939C8.92218 30.1276 8.92217 34.5597 11.6558 37.2934L26.9995 52.637C29.7331 55.3707 34.1653 55.3707 36.899 52.637L52.2426 37.2934C54.9763 34.5597 54.9763 30.1276 52.2426 27.3939L36.899 12.0503ZM25.7744 33.8141C25.7714 34.3353 25.7805 34.8595 25.8347 35.3807C25.8439 35.4654 25.8555 35.5502 25.8671 35.6345V35.6345L25.8671 35.6347C25.8782 35.7152 25.8891 35.7954 25.898 35.8748C25.8546 35.9037 25.8112 35.9018 25.7678 35.8999C25.757 35.8994 25.7461 35.8989 25.7353 35.8989H23.8764L23.8664 35.8988L23.8523 35.8983C23.8362 35.8976 23.8201 35.8969 23.8041 35.8989C23.7257 35.908 23.7016 35.8688 23.6986 35.7935C23.6932 35.6386 23.6846 35.4848 23.6759 35.3308L23.6759 35.3308L23.6759 35.3307C23.6701 35.2271 23.6643 35.1234 23.6594 35.0192C23.6575 34.9782 23.6581 34.9372 23.6587 34.8912V34.8912C23.6591 34.8663 23.6594 34.8399 23.6594 34.8113C23.5839 34.8373 23.5564 34.8836 23.5307 34.9271C23.5236 34.9391 23.5166 34.9509 23.5088 34.9619C23.2045 35.3958 22.8309 35.7392 22.3218 35.92C22.0054 36.0345 21.677 36.0767 21.3456 36.0676C20.8635 36.0556 20.3905 35.9742 19.9507 35.7573C19.324 35.45 18.9353 34.965 18.8209 34.269C18.8118 34.2148 18.8028 34.1605 18.7546 34.1244V33.5821C18.8079 33.5542 18.8141 33.5027 18.8202 33.453L18.8202 33.4529C18.8213 33.4436 18.8224 33.4344 18.8239 33.4254C18.9323 32.7897 19.2878 32.3257 19.8392 32.0094C20.273 31.7593 20.7491 31.6298 21.2402 31.5575C21.9512 31.452 22.6652 31.443 23.3793 31.5484C23.5239 31.5695 23.5359 31.5605 23.5209 31.4128C23.4787 31.0031 23.2919 30.6958 22.9093 30.521C22.7285 30.4367 22.5357 30.3855 22.3368 30.3704C21.5535 30.3132 20.7852 30.3915 20.0531 30.6958C19.9925 30.722 19.9337 30.75 19.8752 30.7778L19.8751 30.7778L19.8751 30.7778C19.826 30.8012 19.7772 30.8244 19.7277 30.8464C19.685 30.8227 19.689 30.7877 19.6927 30.7563C19.6936 30.7478 19.6946 30.7396 19.6946 30.7319L19.6936 30.6976C19.6819 30.2633 19.6702 29.8317 19.6614 29.3973C19.6584 29.2448 19.6614 29.2436 19.7969 29.1906L19.8 29.1894C20.3935 28.9604 21.0112 28.8339 21.6439 28.7796C22.1048 28.7405 22.5658 28.7254 23.0298 28.7766C23.566 28.8369 24.0812 28.9634 24.5512 29.2436C25.2231 29.6443 25.5907 30.2439 25.7262 31.0001C25.7654 31.208 25.7744 31.4189 25.7744 31.6298V33.8141ZM21.0684 33.8984C21.1588 34.1846 21.3757 34.3413 21.6529 34.4076C22.7857 34.6848 23.4907 33.7448 23.5269 32.8921C23.5299 32.8259 23.5088 32.7957 23.4365 32.7927C23.2949 32.7867 23.1541 32.7799 23.0133 32.7731C22.8724 32.7664 22.7315 32.7596 22.5899 32.7535C22.4091 32.7445 22.2284 32.7656 22.0506 32.7897C21.8096 32.8198 21.5776 32.8831 21.3757 33.0247C21.0925 33.2205 20.966 33.576 21.0684 33.8984ZM32.2911 30.881L32.2911 30.8809C32.2067 30.8388 32.1284 30.7996 32.0441 30.7635C31.5018 30.5224 30.9353 30.4441 30.3539 30.5797C29.6157 30.7544 29.1156 31.3329 29.0132 32.0831C28.9619 32.4536 28.974 32.8182 29.1277 33.1617C29.4169 33.8094 29.9411 34.1589 30.625 34.2704C31.1975 34.3608 31.7518 34.2674 32.2881 34.0595C32.3131 34.0498 32.3381 34.0394 32.3624 34.0293L32.3626 34.0293C32.3911 34.0174 32.4188 34.0059 32.4448 33.9962C32.4817 34.0061 32.4824 34.026 32.4831 34.0444C32.4832 34.0485 32.4834 34.0526 32.4839 34.0565C32.4889 34.2295 32.4935 34.4022 32.4982 34.5748L32.4982 34.5752C32.5076 34.9254 32.517 35.2751 32.5291 35.6261C32.5321 35.7286 32.499 35.7738 32.3996 35.8039C32.023 35.9154 31.6403 35.9877 31.2517 36.0329C30.5135 36.1172 29.7844 36.072 29.0734 35.8581C28.266 35.6141 27.5881 35.1802 27.1 34.4813C26.7626 33.9962 26.5848 33.4539 26.5186 32.8694C26.4553 32.2849 26.5065 31.7155 26.6933 31.1611C27.0307 30.1729 27.7146 29.5041 28.6697 29.1094C29.3988 28.8081 30.1641 28.7147 30.9504 28.769C31.4234 28.8021 31.8814 28.8865 32.3182 29.0703C32.4844 29.1402 32.4841 29.1425 32.4676 29.3035L32.4659 29.3203C32.4207 29.7572 32.3785 30.194 32.3363 30.6309C32.3353 30.6444 32.3345 30.658 32.3337 30.6719L32.3337 30.6719C32.33 30.7384 32.326 30.8086 32.2911 30.881ZM35.6477 30.1068C35.635 30.1351 35.6203 30.1677 35.5601 30.1729V29.0883C35.5601 28.9226 35.5601 28.9196 35.3943 28.9196H33.5354C33.3667 28.9196 33.3637 28.9196 33.3637 29.0853V35.7496C33.3637 35.9033 33.3667 35.9063 33.5234 35.9063H35.6173C35.7739 35.9063 35.774 35.9033 35.777 35.7498L35.777 35.7496V35.6231V32.8965C35.777 32.6314 35.7981 32.3692 35.8463 32.1071C35.9035 31.7848 36.0029 31.4774 36.2018 31.2093C36.5031 30.8056 36.9911 30.7031 37.3949 30.7905C37.7202 30.8598 37.904 31.0948 38.0125 31.3931C38.1059 31.6492 38.127 31.9203 38.127 32.1915V35.6773C38.127 35.6914 38.1273 35.7054 38.1276 35.7195C38.1283 35.7476 38.129 35.7757 38.127 35.8039C38.121 35.8852 38.1631 35.9093 38.2354 35.9033C38.2555 35.9013 38.2756 35.9019 38.2957 35.9026C38.3057 35.9029 38.3158 35.9033 38.3258 35.9033H40.3474H40.4559C40.5161 35.9063 40.5433 35.8762 40.5402 35.8159C40.5382 35.7878 40.5389 35.7597 40.5396 35.7315C40.5399 35.7175 40.5402 35.7034 40.5402 35.6894C40.5402 35.394 40.5406 35.099 40.5409 34.804C40.5416 34.2145 40.5423 33.6255 40.5402 33.0351C40.5402 32.776 40.5463 32.5169 40.5824 32.2608C40.6246 31.9535 40.6969 31.6582 40.8476 31.384C40.9922 31.1249 41.191 30.9201 41.4833 30.8297C42.1431 30.6278 42.6522 30.8538 42.8209 31.5498C42.8661 31.7396 42.8872 31.9294 42.8872 32.1222V35.6803V35.8249C42.8872 35.8731 42.9053 35.9033 42.9595 35.9033H43.068H45.1077C45.2121 35.9033 45.2604 35.9062 45.2825 35.8836C45.3051 35.8605 45.3005 35.8109 45.3005 35.7044C45.3005 35.3046 45.3002 34.9051 45.2998 34.5058C45.2992 33.7074 45.2985 32.9094 45.3005 32.1101C45.3005 31.7848 45.2915 31.4624 45.2734 31.137C45.2583 30.8297 45.2101 30.5254 45.1258 30.2301C44.9058 29.4468 44.3967 28.9738 43.5983 28.8201C43.1825 28.7418 42.7637 28.7207 42.3419 28.784C41.7243 28.8774 41.182 29.1244 40.7391 29.5794C40.6279 29.6928 40.5338 29.8199 40.4401 29.9465C40.4094 29.9881 40.3787 30.0295 40.3474 30.0705C40.3072 30.0397 40.2893 29.9997 40.2718 29.9605C40.267 29.9498 40.2622 29.9392 40.257 29.9289C40.004 29.4227 39.6093 29.0823 39.079 28.8985C38.5337 28.7087 37.9793 28.7057 37.422 28.8201C36.6477 28.9798 36.0361 29.3805 35.6535 30.0946C35.6515 30.0985 35.6496 30.1026 35.6477 30.1068Z" fill="white"/>
</svg>
