<svg width="64" height="64" viewBox="0 0 64 64" fill="none" xmlns="http://www.w3.org/2000/svg">
<circle cx="32" cy="32" r="32" fill="#39A7E4"/>
<path fill-rule="evenodd" clip-rule="evenodd" d="M11 22.58C9.58441 23.164 9.60004 23.0588 9.60004 31.9455V40.0811L10.1313 40.6127L10.6626 41.1442H19.3426H28.0224L30.0113 37.5565C31.2937 35.243 32.0308 34.1244 32.0866 34.4065C32.3176 35.5759 35.2177 40.0942 35.7373 40.0942C37.3609 40.0942 37.2764 39.023 35.3834 35.6079C33.7589 32.6768 33.467 32.3891 32.7635 33.0256C32.5148 33.2508 32.9061 32.387 33.6332 31.1062C34.3602 29.8254 35.4387 27.9114 36.03 26.8525L37.1047 24.9275H43.2234H49.3419L49.946 24.2096C51.4164 22.4621 50.9337 22.3422 42.7175 22.4157L35.8008 22.4775L33.7559 26.1612C31.5152 30.1969 31.4349 30.3213 31.573 29.544C31.636 29.1894 31.0506 27.9168 29.8258 25.7442L27.9837 22.4775L19.7253 22.4325C15.183 22.4078 11.2567 22.474 11 22.58ZM52.4751 23.9783L51.7167 24.8676V31.781V38.6942H45.7084H39.7001L39.0584 39.4985C37.7993 41.0763 37.5851 41.0275 45.7667 41.0275C55.3644 41.0275 54.3233 42.2472 54.2318 31.1109C54.1583 22.142 54.132 22.0354 52.4751 23.9783ZM28.3029 27.7835C29.6016 30.105 30.0148 30.6619 30.5093 30.7585L31.118 30.8775L28.9095 34.7859L26.7013 38.6942H19.3755H12.05V31.8109V24.9275H19.3774H26.7048L28.3029 27.7835ZM31.4167 30.4109C31.4167 30.475 31.3642 30.5275 31.3 30.5275C31.2359 30.5275 31.1834 30.475 31.1834 30.4109C31.1834 30.3467 31.2359 30.2942 31.3 30.2942C31.3642 30.2942 31.4167 30.3467 31.4167 30.4109ZM32.35 33.6775C32.35 33.7417 32.2976 33.7942 32.2334 33.7942C32.1692 33.7942 32.1167 33.7417 32.1167 33.6775C32.1167 33.6134 32.1692 33.5609 32.2334 33.5609C32.2976 33.5609 32.35 33.6134 32.35 33.6775Z" fill="white"/>
<path fill-rule="evenodd" clip-rule="evenodd" d="M52.5444 23.885L51.7168 24.8497V31.733V38.6807H45.6936H39.6106L38.961 39.4894C37.6862 41.0758 37.4694 41.0267 45.7527 41.0267C55.4696 41.0267 54.4156 42.253 54.323 31.0562C54.2486 22.0387 54.2219 21.9315 52.5444 23.885Z" fill="white"/>
</svg>
