<svg width="100" height="100" viewBox="0 0 100 100" fill="none" xmlns="http://www.w3.org/2000/svg">
<circle cx="50" cy="50" r="50" fill="#4848FE"/>
<path fill-rule="evenodd" clip-rule="evenodd" d="M70.9715 20.1794C69.3106 21.7844 68.3214 22.4862 67.5054 22.6392C66.5754 22.814 65.8662 22.6169 63.6817 21.5776C62.2069 20.8755 60.5631 20.1384 60.0292 19.939C59.4954 19.7397 57.9361 19.3524 56.5644 19.078C55.1928 18.8039 52.5292 18.5797 50.6456 18.5797C48.7621 18.5797 46.1121 18.8088 44.7566 19.0887C43.4015 19.3686 41.4782 19.9018 40.4829 20.2736C39.4879 20.6454 37.6707 21.5446 36.445 22.2723C35.2193 22.9997 33.3594 24.4344 32.312 25.4605C31.2649 26.4865 29.9234 28.0882 29.331 29.0198C28.7385 29.9513 27.9228 31.5873 27.5183 32.6551C27.0184 33.974 26.7307 35.5831 26.6217 37.6718C26.5272 39.4718 26.621 41.52 26.8475 42.6101C27.0601 43.6349 27.8788 45.7705 28.6663 47.356C29.4542 48.9412 30.0988 50.5195 30.0988 50.8629C30.0988 51.2065 29.9438 51.9326 29.7542 52.4765C29.5646 53.0204 28.5414 54.2202 27.4804 55.1431C26.4198 56.0656 25.2481 57.4155 24.8773 58.1426C24.5062 58.87 24.1282 60.2866 24.037 61.2909C23.9309 62.4639 24.0551 63.7488 24.3845 64.8826C24.6725 65.8724 25.3966 67.2304 26.0334 67.9743C26.6579 68.704 27.8561 69.6239 28.6958 70.0187C29.7535 70.516 30.8747 70.7451 32.345 70.7648C33.55 70.7807 35.6555 70.4908 37.2174 70.0934C38.7301 69.7087 42.6615 68.749 45.9538 67.9611C49.2462 67.1732 53.5843 66.1368 55.594 65.6579C57.6753 65.1622 59.5973 64.8752 60.059 64.991C60.5049 65.103 61.3811 65.6631 62.0066 66.2361C62.8437 67.0033 63.1905 67.631 63.3229 68.6192C63.4539 69.5961 63.3387 70.2397 62.8987 70.9871C62.5661 71.5518 61.8403 72.295 61.2854 72.6386C60.3263 73.2324 59.5329 73.2635 45.2685 73.2641C31.6261 73.2644 30.158 73.3159 29.1345 73.8304C28.5152 74.1413 27.6652 74.9056 27.2452 75.5285C26.6084 76.4739 26.5039 76.969 26.6126 78.5251C26.7239 80.1145 26.9045 80.5558 27.8373 81.5181L28.9313 82.6471H47.1326H65.3336L67.3038 81.4922C68.6939 80.6775 69.5989 79.8439 70.3771 78.661C70.9841 77.7391 71.6533 76.2859 71.8642 75.432C72.0752 74.5778 72.1775 72.9033 72.0917 71.711C71.9875 70.2646 71.6594 69.0033 71.1064 67.9245C70.6505 67.0347 69.7189 65.7679 69.0362 65.1091C68.3535 64.4506 67.1032 63.6064 66.2577 63.2334C65.4122 62.8603 64.0289 62.4794 63.1838 62.3869C62.3188 62.2921 55.8904 62.8642 48.4793 63.6951C39.3743 64.7163 35.0698 65.0797 34.5275 64.8735C34.0959 64.7095 33.4296 64.1769 33.0465 63.6896C32.6631 63.2026 32.2674 62.4759 32.1667 62.075C32.0661 61.6741 32.2227 60.8428 32.5146 60.228C32.8061 59.6129 33.5157 58.8564 34.091 58.5464C35.0488 58.0306 35.5581 58.0154 40.1409 58.3662C42.8932 58.5768 46.965 58.8276 49.1896 58.9234C52.1571 59.0512 53.9412 58.9612 55.8898 58.5859C57.3501 58.3047 59.6798 57.6362 61.0669 57.1007C62.4538 56.5649 64.4201 55.578 65.4368 54.9069C66.4535 54.2361 68.0299 52.9832 68.9398 52.1232C69.85 51.2628 71.1614 49.6821 71.8539 48.6108C72.546 47.5398 73.4216 45.841 73.7989 44.8363C74.2228 43.7077 74.5502 41.8963 74.6554 40.0973C74.7492 38.4956 74.6673 36.3115 74.4732 35.2437C74.2791 34.1759 73.4614 31.9889 72.6563 30.3836C71.8513 28.7784 71.1925 27.1495 71.1925 26.7645C71.1925 26.3791 71.3258 25.7132 71.4889 25.2845C71.652 24.856 72.7528 23.5326 73.9357 22.3441C75.8134 20.4571 76.0733 20.0507 75.9853 19.1388C75.8914 18.1688 75.7921 18.0885 74.59 18.0141C73.3863 17.9397 73.133 18.0914 70.9715 20.1794ZM47.7859 33.2214C47.6963 33.444 47.6228 33.2618 47.6228 32.8169C47.6228 32.372 47.6963 32.1901 47.7859 32.4124C47.8759 32.635 47.8759 32.9991 47.7859 33.2214ZM50.8074 33.6258C50.8074 33.7148 50.7346 33.7876 50.6456 33.7876C50.5567 33.7876 50.4839 33.7148 50.4839 33.6258C50.4839 33.5368 50.5567 33.464 50.6456 33.464C50.7346 33.464 50.8074 33.5368 50.8074 33.6258ZM47.4827 37.0984C47.4106 37.6799 47.3501 37.2822 47.3484 36.2144C47.3465 35.1466 47.4054 34.6706 47.4795 35.157C47.5533 35.6433 47.5546 36.5169 47.4827 37.0984ZM49.9985 36.0526C50.1085 36.2306 49.8901 36.3762 49.5131 36.3762C49.1362 36.3762 48.9178 36.2306 49.0278 36.0526C49.1378 35.8747 49.3562 35.729 49.5131 35.729C49.6701 35.729 49.8885 35.8747 49.9985 36.0526ZM50.3845 37.907C50.3023 38.2218 50.2299 38.0426 50.2234 37.5087C50.2169 36.9748 50.2839 36.7172 50.3725 36.9363C50.4612 37.1554 50.4667 37.5922 50.3845 37.907ZM50.3845 40.172C50.3023 40.4869 50.2299 40.3076 50.2234 39.7737C50.2169 39.2398 50.2839 38.9822 50.3725 39.2013C50.4612 39.4204 50.4667 39.8572 50.3845 40.172ZM50.3832 45.6789C50.302 45.9905 50.2354 45.7355 50.2354 45.1126C50.2354 44.4898 50.302 44.2348 50.3832 44.5464C50.4648 44.858 50.4648 45.3673 50.3832 45.6789Z" fill="#6BE7C2"/>
<ellipse cx="49.804" cy="38.3989" rx="5.46029" ry="17.4729" fill="#4848FE"/>
<path d="M51 26C52.6667 30 55 40.6 51 51" stroke="#6BE7C2" stroke-linecap="round"/>
</svg>
