<svg width="64" height="64" viewBox="0 0 64 64" fill="none" xmlns="http://www.w3.org/2000/svg">
<circle cx="32" cy="32" r="32" fill="url(#paint0_linear_109_55)"/>
<g clip-path="url(#clip0_109_55)">
<path d="M44.3219 33.5219H44.2927L43.0483 29.1933H41.041V34.6502H42.3707L42.2958 30.1721H42.3251L43.6612 34.6502H45.5873V29.193H44.2487L44.3219 33.5219ZM18.7836 29.193L17.7822 34.7077H19.2435L19.9839 29.702H20.0148L20.7356 34.708H22.1883L21.1915 29.193H18.7836ZM26.9575 29.1936L26.2895 33.4099H26.2592L25.5944 29.1936H23.3884L23.2687 34.7077H24.6212L24.6551 29.7488H24.6857L25.5891 34.7077H26.961L27.8646 29.7504L27.8947 29.7488L27.9299 34.7077H29.283L29.1635 29.1936H26.9575ZM14.4311 30.6116C14.4056 30.4989 14.4118 30.3861 14.4255 30.3238C14.4644 30.1466 14.5815 29.9525 14.92 29.9525C15.2373 29.9525 15.4221 30.1528 15.4221 30.4519V30.7926H16.7727V30.4076C16.7727 29.2046 15.7144 29.0169 14.9482 29.0169C13.9868 29.0169 13.2018 29.3426 13.0571 30.2422C13.0176 30.4838 13.0128 30.7053 13.0702 30.9845C13.3052 32.1116 15.2266 32.438 15.5055 33.1508C15.5579 33.2837 15.541 33.4561 15.5152 33.5603C15.4714 33.7407 15.3498 33.9283 14.9887 33.9283C14.651 33.9283 14.4448 33.731 14.4448 33.43L14.444 32.895H12.9937L12.9929 33.3213C12.9929 34.5514 13.9422 34.9211 14.9589 34.9211C15.9389 34.9211 16.7421 34.5834 16.8721 33.6628C16.9381 33.1855 16.8895 32.8724 16.8662 32.7556C16.6372 31.6004 14.5855 31.2589 14.4311 30.6116ZM32.0294 30.6245C32.0029 30.5144 32.0104 30.4028 32.023 30.3418C32.0608 30.1657 32.1768 29.9737 32.5124 29.9737C32.826 29.9737 33.0102 30.1711 33.0102 30.4661V30.8044H34.3463V30.4229C34.3463 29.2346 33.2977 29.0475 32.5414 29.0475C31.5883 29.0475 30.81 29.3659 30.6686 30.2599C30.6291 30.5005 30.6229 30.7204 30.6809 30.9955C30.9137 32.1108 32.8161 32.4348 33.0929 33.1398C33.1433 33.2727 33.128 33.4421 33.1033 33.5455C33.0593 33.7272 32.9377 33.9093 32.5817 33.9093C32.2456 33.9093 32.0431 33.7149 32.0431 33.4172L32.0421 32.8861H30.6047V33.3087C30.6047 34.5262 31.5457 34.8916 32.5524 34.8916C33.5203 34.8916 34.3168 34.5568 34.4443 33.6459C34.5098 33.1747 34.4615 32.8644 34.4387 32.7481C34.2118 31.6052 32.1798 31.2656 32.0294 30.6245ZM38.1637 33.2714C38.1648 33.3414 38.1627 33.4225 38.1511 33.4816C38.1243 33.6188 38.0086 33.8784 37.6324 33.8784C37.2577 33.8784 37.1406 33.6188 37.1138 33.4816C37.1022 33.4225 37.0995 33.3414 37.1001 33.2714V29.1925H35.733V33.1449C35.7309 33.2472 35.7408 33.4542 35.7456 33.5092C35.8385 34.5372 36.6375 34.8693 37.6322 34.8693C38.6258 34.8693 39.4245 34.5372 39.5203 33.5092C39.5252 33.4542 39.5356 33.2469 39.534 33.1449V29.1925H38.1635V33.2714H38.1637ZM48.9268 31.6074V32.415H49.4806V33.2147C49.4822 33.2843 49.4796 33.361 49.468 33.4241C49.4438 33.5726 49.3059 33.8231 48.9158 33.8231C48.5246 33.8231 48.3871 33.5723 48.3619 33.4241C48.3514 33.361 48.3482 33.2843 48.3498 33.2147V30.6916C48.3498 30.602 48.3555 30.504 48.3718 30.4328C48.4006 30.297 48.5171 30.0325 48.9104 30.0325C49.3241 30.0325 49.4264 30.3117 49.4511 30.4328C49.4669 30.5093 49.468 30.6412 49.468 30.6406V30.9512H50.8313V30.7671C50.8308 30.7671 50.8361 30.5786 50.8203 30.4065C50.7202 29.3694 49.8796 29.0429 48.9217 29.0429C47.9632 29.0429 47.1425 29.3721 47.0236 30.4065C47.012 30.4956 46.9999 30.6691 46.9999 30.7671L46.9994 33.0872C46.9999 33.1911 47.0032 33.2679 47.0182 33.4515C47.1073 34.4556 47.9632 34.8154 48.9206 34.8154C49.8785 34.8154 50.7344 34.4556 50.8241 33.4515C50.8388 33.2676 50.841 33.1908 50.8412 33.0872V31.6074H48.9268Z" fill="white"/>
</g>
<defs>
<linearGradient id="paint0_linear_109_55" x1="13" y1="6.5" x2="52.5" y2="59.5" gradientUnits="userSpaceOnUse">
<stop stop-color="#5AB3E4"/>
<stop offset="1" stop-color="#066FA9"/>
</linearGradient>
<clipPath id="clip0_109_55">
<rect width="39" height="6.88235" fill="white" transform="translate(13 29)"/>
</clipPath>
</defs>
</svg>
