<svg width="64" height="64" viewBox="0 0 64 64" fill="none" xmlns="http://www.w3.org/2000/svg">
<circle cx="32" cy="32" r="32" fill="#EE2722"/>
<path d="M10.9596 28.9231H6.85712V25.171H19.5678V28.9231H15.4668V39.8092H10.9596V28.9231Z" fill="white"/>
<path d="M20.268 25.171H32.6068V28.9231H24.7784V30.7471H32.6068V34.2336H24.7784V36.0576H32.6089V39.8097H20.268V25.171Z" fill="white"/>
<path d="M37.8755 36.0576H39.6394C42.4492 36.0576 42.8597 33.7813 42.8597 32.4064C42.8597 31.4855 42.571 28.9231 39.311 28.9231H37.8755V36.0576ZM33.3657 25.171H40.7669C45.6454 25.171 47.3701 28.7793 47.3701 32.4687C47.3701 36.9602 44.9917 39.8092 39.8862 39.8092H33.3657V25.171Z" fill="white"/>
<path d="M53.8504 34.1683L52.4745 31.8872L51.1326 34.1683H47.8287L50.9653 29.5554L47.9448 25.1428H51.2503L52.4745 27.324L53.7337 25.1428H57.0382L54.0188 29.5554L57.1559 34.1683H53.8504Z" fill="white"/>
</svg>
