<svg width="48" height="48" viewBox="0 0 48 48" fill="none" xmlns="http://www.w3.org/2000/svg">
<g clip-path="url(#clip0_404_59)">
<path d="M27.425 16.6839L27.5303 16.7542C28.769 17.5722 29.6571 18.694 30.2413 20.0495C30.3816 20.2598 30.2881 20.3767 30.0076 20.4467L29.5329 20.5682C28.4598 20.8447 27.6082 21.0772 26.5492 21.3537L25.9451 21.511C25.7276 21.5648 25.6676 21.5422 25.4362 21.2788L25.4036 21.2414C25.0737 20.8675 24.8266 20.6177 24.3895 20.3948L24.3052 20.3533C22.8329 19.6289 21.4073 19.8391 20.0752 20.7039C18.486 21.7321 17.668 23.2513 17.6914 25.1443C17.7148 27.0138 19.0001 28.5563 20.8464 28.8134C22.4356 29.0237 23.7677 28.4628 24.8194 27.271C25.0297 27.0138 25.2167 26.7334 25.4503 26.4062H20.94C20.4492 26.4062 20.3324 26.1025 20.496 25.7052L20.577 25.5144C20.8774 24.8156 21.3432 23.8111 21.6457 23.2368L21.7117 23.1132C21.7926 22.9731 21.9566 22.7838 22.2721 22.7838H29.7931C30.1309 21.7137 30.6789 20.7025 31.4099 19.7457C33.116 17.5021 35.1726 16.3336 37.9537 15.8429C40.3374 15.4221 42.5811 15.6558 44.6142 17.0347C46.4605 18.2967 47.6057 20.0028 47.9095 22.2463C48.3067 25.4013 47.3953 27.9721 45.2219 30.1689C43.6794 31.7347 41.7864 32.7163 39.6129 33.1603C38.982 33.2772 38.351 33.3005 37.7434 33.3706C35.6167 33.3239 33.6769 32.7163 32.0409 31.3141C30.8903 30.3194 30.0978 29.0971 29.7039 27.6739C29.4276 28.2316 29.0989 28.7618 28.7224 29.2574C27.0397 31.4776 24.8429 32.8564 22.0618 33.2305C19.7715 33.5342 17.6448 33.0901 15.7751 31.6879C14.0457 30.3792 13.0642 28.6498 12.807 26.4998C12.5032 23.9523 13.2511 21.662 14.7936 19.6522C16.4529 17.4787 18.6497 16.0999 21.3373 15.6091C23.4935 15.2191 25.5595 15.4596 27.4251 16.6839H27.425ZM38.5425 20.0328L38.4677 20.0495C36.2943 20.5403 34.8921 21.9191 34.3779 24.1159C33.9572 25.9388 34.8453 27.7851 36.528 28.533C37.8133 29.0939 39.0987 29.0237 40.3373 28.3927C42.1837 27.4346 43.1886 25.9388 43.3055 23.929C43.282 23.6252 43.282 23.3914 43.2352 23.1577C42.8194 20.8701 40.7355 19.5648 38.5425 20.0328V20.0328ZM10.914 24.3029C11.0075 24.3029 11.0542 24.373 11.0542 24.4665L11.0075 25.0274C11.0075 25.1208 10.914 25.191 10.8439 25.191L5.74912 25.1676C5.65565 25.1676 5.63231 25.0975 5.679 25.0274L6.00618 24.4431C6.05297 24.373 6.14643 24.3029 6.2399 24.3029H10.914V24.3029ZM11.4281 22.1528C11.5216 22.1528 11.5684 22.2229 11.545 22.2931L11.358 22.854C11.3347 22.9474 11.2412 22.9941 11.1477 22.9941L0.0934653 23.0176C-3.47011e-06 23.0176 -0.0233472 22.9708 0.0233403 22.9006L0.514122 22.2697C0.560903 22.1996 0.677715 22.1528 0.771184 22.1528H11.4281ZM12.6434 20.0027C12.7369 20.0027 12.7602 20.0729 12.7135 20.143L12.3162 20.7506C12.2694 20.8207 12.1526 20.8908 12.0825 20.8908L3.6225 20.8674C3.52893 20.8674 3.50559 20.8207 3.55228 20.7506L4.04306 20.1196C4.08984 20.0495 4.20665 20.0027 4.30012 20.0027H12.6434Z" fill="#00ACD7"/>
</g>
<defs>
<clipPath id="clip0_404_59">
<rect width="48" height="18" fill="white" transform="translate(0 15.4375)"/>
</clipPath>
</defs>
</svg>
