<svg width="48" height="48" viewBox="0 0 48 48" fill="none" xmlns="http://www.w3.org/2000/svg">
<g clip-path="url(#clip0_404_77)">
<path d="M18.2044 36.0596C18.2044 36.0596 16.5732 37.0082 19.3654 37.3292C22.7482 37.7151 24.477 37.6598 28.2049 36.9542C28.2049 36.9542 29.1851 37.5687 30.5537 38.1011C22.197 41.6826 11.6405 37.8935 18.2044 36.0596" fill="#5382A1"/>
<path d="M17.1823 31.3853C17.1823 31.3853 15.3527 32.7397 18.147 33.0286C21.7606 33.4014 24.6143 33.4319 29.5524 32.4811C29.5524 32.4811 30.2354 33.1735 31.3093 33.5522C21.2054 36.5067 9.95148 33.7852 17.1823 31.3853" fill="#5382A1"/>
<path d="M25.791 23.4573C27.8502 25.828 25.25 27.9613 25.25 27.9613C25.25 27.9613 30.4784 25.2623 28.0772 21.8823C25.8346 18.7305 24.1147 17.1642 33.4252 11.7646C33.4252 11.7646 18.8109 15.4146 25.791 23.4572" fill="#E76F00"/>
<path d="M36.8424 39.5168C36.8424 39.5168 38.0496 40.5114 35.5129 41.281C30.6892 42.7423 15.4363 43.1835 11.199 41.3392C9.67588 40.6767 12.5323 39.7571 13.4307 39.564C14.3677 39.3608 14.9033 39.3988 14.9033 39.3988C13.2094 38.2054 3.95443 41.7419 10.2023 42.7545C27.2409 45.5177 41.262 41.5104 36.8424 39.5168Z" fill="#5382A1"/>
<path d="M18.99 26.5436C18.99 26.5436 11.2315 28.3864 16.2427 29.0555C18.3584 29.3388 22.5763 29.2748 26.5052 28.9455C29.7161 28.6748 32.9402 28.0988 32.9402 28.0988C32.9402 28.0988 31.808 28.5837 30.9889 29.143C23.1101 31.2152 7.88977 30.2512 12.2715 28.1316C15.9772 26.3404 18.9902 26.5436 18.9902 26.5436" fill="#5382A1"/>
<path d="M32.9051 34.3229C40.9144 30.1611 37.2112 26.1616 34.6264 26.7005C33.9929 26.8323 33.7104 26.9465 33.7104 26.9465C33.7104 26.9465 33.9457 26.5781 34.3948 26.4187C39.5082 24.6209 43.4407 31.7208 32.7441 34.5327C32.7441 34.5328 32.8681 34.422 32.9051 34.3229" fill="#5382A1"/>
<path d="M28.077 3.04602C28.077 3.04602 32.5126 7.48326 23.87 14.3061C16.9396 19.7794 22.2896 22.9 23.8671 26.4655C19.8217 22.8156 16.8528 19.6025 18.8447 16.6121C21.7679 12.2222 29.8666 10.0939 28.077 3.0459" fill="#E76F00"/>
<path d="M19.7755 45.6006C27.4633 46.0928 39.2687 45.3276 39.5483 41.6899C39.5483 41.6899 39.0109 43.0691 33.1948 44.1642C26.6331 45.3989 18.5402 45.2548 13.7402 44.4634C13.7404 44.4634 14.7229 45.2767 19.7756 45.6006" fill="#5382A1"/>
</g>
<defs>
<clipPath id="clip0_404_77">
<rect width="31.6416" height="42.7656" fill="white" transform="translate(8 3)"/>
</clipPath>
</defs>
</svg>
