<svg width="48" height="48" viewBox="0 0 48 48" fill="none" xmlns="http://www.w3.org/2000/svg">
<path d="M3 3H45V45H3V3Z" fill="#F7DF1E"/>
<path d="M14.0431 38.0983L17.2571 36.1532C17.8773 37.2526 18.4413 38.1828 19.7943 38.1828C21.0913 38.1828 21.9091 37.6755 21.9091 35.7022V22.2822H25.856V35.758C25.856 39.8459 23.4597 41.7067 19.9635 41.7067C16.8061 41.7067 14.9734 40.0715 14.043 38.098" fill="black"/>
<path d="M28.0002 37.6756L31.2138 35.8149C32.0599 37.1965 33.1594 38.2114 35.1046 38.2114C36.7401 38.2114 37.7829 37.3937 37.7829 36.2659C37.7829 34.9127 36.7116 34.4334 34.9072 33.6442L33.9207 33.2209C31.0731 32.009 29.1842 30.4865 29.1842 27.2725C29.1842 24.3122 31.4396 22.0566 34.9638 22.0566C37.473 22.0566 39.2773 22.9308 40.5741 25.2144L37.5009 27.188C36.8241 25.9758 36.0914 25.4965 34.9636 25.4965C33.8076 25.4965 33.0746 26.2296 33.0746 27.188C33.0746 28.3721 33.8076 28.8516 35.4991 29.5846L36.4858 30.0074C39.8409 31.4454 41.7297 32.9113 41.7297 36.2097C41.7297 39.7623 38.9387 41.7074 35.1891 41.7074C31.5241 41.7074 29.1558 39.9595 28 37.6757" fill="black"/>
</svg>
