<svg width="48" height="48" viewBox="0 0 48 48" fill="none" xmlns="http://www.w3.org/2000/svg">
<g clip-path="url(#clip0_404_40)">
<path fill-rule="evenodd" clip-rule="evenodd" d="M25.4662 48L24.2684 47.5906C24.2684 47.5906 24.4147 41.4838 22.2228 41.0455C20.7621 39.3505 22.4571 -30.8372 27.7166 40.8115C27.7166 40.8115 25.9048 41.7171 25.5834 43.2662C25.2326 44.7857 25.4662 48 25.4662 48V48Z" fill="#A6A385"/>
<path fill-rule="evenodd" clip-rule="evenodd" d="M26.1105 42.0972C26.1105 42.0972 36.601 35.201 34.146 20.8535C31.7794 10.4222 26.1982 7.00338 25.5846 5.68835C24.9126 4.7533 24.2695 3.11719 24.2695 3.11719L24.7081 32.1327C24.7081 32.1622 23.8022 41.0159 26.1108 42.0976" fill="#499D4A"/>
<path fill-rule="evenodd" clip-rule="evenodd" d="M23.6573 42.4769C23.6573 42.4769 13.8096 35.7561 14.3942 23.9221C14.9492 12.0877 21.9037 6.27285 23.2479 5.22095C24.1247 4.2859 24.1538 3.93506 24.2124 3C24.8261 4.31503 24.7092 22.6656 24.7966 24.8277C25.0594 33.1554 24.3292 40.8993 23.6573 42.4769Z" fill="#58AA50"/>
</g>
<defs>
<clipPath id="clip0_404_40">
<rect width="48" height="48" fill="white"/>
</clipPath>
</defs>
</svg>
