<svg width="48" height="48" viewBox="0 0 48 48" fill="none" xmlns="http://www.w3.org/2000/svg">
<g clip-path="url(#clip0_404_39)">
<path d="M24.2595 47.9114C23.5993 47.9114 22.9831 47.7353 22.4109 47.4272L16.5568 43.95C15.6765 43.4658 16.1166 43.2898 16.3807 43.2017C17.5691 42.8056 17.7891 42.7176 19.0215 42.0132C19.1537 41.9252 19.3298 41.9692 19.4617 42.0572L23.9514 44.7422C24.1275 44.8302 24.3475 44.8302 24.4796 44.7422L42.0419 34.5747C42.218 34.4867 42.306 34.3106 42.306 34.0905V13.7992C42.306 13.5791 42.218 13.403 42.0419 13.315L24.4796 3.19133C24.3035 3.1033 24.0835 3.1033 23.9514 3.19133L6.38907 13.3152C6.21301 13.4032 6.12498 13.6233 6.12498 13.7993V34.0905C6.12498 34.2666 6.21301 34.4867 6.38907 34.5747L11.1869 37.3476C13.7839 38.668 15.4122 37.1275 15.4122 35.587V15.5597C15.4122 15.2956 15.6325 15.0315 15.9406 15.0315H18.1854C18.4495 15.0315 18.7136 15.2516 18.7136 15.5597V35.5868C18.7136 39.0641 16.8208 41.0887 13.5196 41.0887C12.5073 41.0887 11.7151 41.0887 9.47037 39.9884L4.84858 37.3476C3.70422 36.6872 3 35.4548 3 34.1344V13.8433C3 12.5229 3.70422 11.2905 4.84858 10.6302L22.4109 0.462634C23.5113 -0.15356 25.0078 -0.15356 26.1081 0.462634L43.6704 10.6302C44.8148 11.2904 45.519 12.5228 45.519 13.8433V34.1346C45.519 35.455 44.8148 36.6874 43.6704 37.3476L26.1081 47.5154C25.5359 47.7795 24.8757 47.9115 24.2595 47.9115V47.9114ZM29.6734 33.9583C21.9706 33.9583 20.3861 30.4372 20.3861 27.4441C20.3861 27.18 20.6062 26.9159 20.9143 26.9159H23.203C23.4671 26.9159 23.6873 27.092 23.6873 27.3561C24.0394 29.6888 25.0518 30.8333 29.7174 30.8333C33.4147 30.8333 34.9994 29.9971 34.9994 28.0165C34.9994 26.8719 34.5593 26.0357 28.7931 25.4633C23.9954 24.9792 21.0023 23.9228 21.0023 20.0936C21.0023 16.5282 23.9953 14.4155 29.0132 14.4155C34.6471 14.4155 37.4202 16.3521 37.7723 20.5776C37.7723 20.7097 37.7283 20.8417 37.6402 20.9737C37.5522 21.0618 37.4202 21.1498 37.2881 21.1498H34.9994C34.7792 21.1498 34.5593 20.9737 34.5151 20.7537C33.9869 18.3329 32.6225 17.5407 29.0132 17.5407C24.9639 17.5407 24.4796 18.9491 24.4796 20.0054C24.4796 21.282 25.0518 21.678 30.5096 22.3822C35.9237 23.0864 38.4765 24.0989 38.4765 27.8843C38.4325 31.7576 35.2635 33.9583 29.6734 33.9583V33.9583Z" fill="#539E43"/>
</g>
<defs>
<clipPath id="clip0_404_39">
<rect width="42.519" height="48" fill="white" transform="translate(3)"/>
</clipPath>
</defs>
</svg>
