<svg width="48" height="48" viewBox="0 0 48 48" fill="none" xmlns="http://www.w3.org/2000/svg">
<g clip-path="url(#clip0_404_66)">
<path d="M23.9053 3.01221C13.2271 3.01221 13.8938 7.64291 13.8938 7.64291L13.9057 12.4405H24.0957V13.8808H9.85838C9.85838 13.8808 3.02539 13.1059 3.02539 23.8801C3.02539 34.6547 8.98939 34.2726 8.98939 34.2726H12.5487V29.2727C12.5487 29.2727 12.3568 23.3087 18.4175 23.3087H28.5242C28.5242 23.3087 34.2024 23.4005 34.2024 17.8209V8.59541C34.2024 8.59541 35.0648 3.01221 23.9053 3.01221ZM18.2865 6.23847C18.5273 6.23825 18.7658 6.28552 18.9883 6.37757C19.2108 6.46962 19.413 6.60464 19.5833 6.77491C19.7535 6.94518 19.8886 7.14735 19.9806 7.36986C20.0727 7.59237 20.1199 7.83085 20.1197 8.07164C20.1199 8.31244 20.0727 8.55092 19.9806 8.77343C19.8886 8.99593 19.7535 9.19811 19.5833 9.36838C19.413 9.53865 19.2108 9.67367 18.9883 9.76572C18.7658 9.85777 18.5273 9.90504 18.2865 9.90482C18.0457 9.90504 17.8073 9.85777 17.5848 9.76572C17.3623 9.67367 17.1601 9.53865 16.9898 9.36838C16.8195 9.19811 16.6845 8.99593 16.5925 8.77343C16.5004 8.55092 16.4532 8.31244 16.4534 8.07164C16.4532 7.83085 16.5004 7.59237 16.5925 7.36986C16.6845 7.14735 16.8195 6.94518 16.9898 6.77491C17.1601 6.60464 17.3623 6.46962 17.5848 6.37757C17.8073 6.28552 18.0457 6.23825 18.2865 6.23847V6.23847Z" fill="url(#paint0_linear_404_66)"/>
<path d="M24.2072 44.8558C34.8854 44.8558 34.2187 40.2251 34.2187 40.2251L34.2068 35.4277H24.0167V33.9873H38.254C38.254 33.9873 45.087 34.7623 45.087 23.9877C45.087 13.2133 39.123 13.5954 39.123 13.5954H35.5637V18.5951C35.5637 18.5951 35.7556 24.5591 29.6949 24.5591H19.5882C19.5882 24.5591 13.91 24.4673 13.91 30.0471V39.2727C13.91 39.2727 13.0477 44.8558 24.2071 44.8558H24.2072ZM29.826 41.6298C29.5852 41.6301 29.3467 41.5828 29.1242 41.4907C28.9017 41.3987 28.6995 41.2637 28.5293 41.0934C28.359 40.9231 28.224 40.721 28.1319 40.4985C28.0399 40.2759 27.9926 40.0375 27.9928 39.7967C27.9926 39.5559 28.0398 39.3174 28.1319 39.0948C28.2239 38.8723 28.3589 38.6701 28.5292 38.4998C28.6995 38.3295 28.9017 38.1945 29.1242 38.1024C29.3467 38.0104 29.5852 37.9631 29.826 37.9633C30.0668 37.9631 30.3053 38.0104 30.5278 38.1024C30.7503 38.1945 30.9525 38.3295 31.1227 38.4998C31.293 38.67 31.428 38.8722 31.5201 39.0947C31.6121 39.3172 31.6594 39.5557 31.6592 39.7965C31.6594 40.0373 31.6121 40.2758 31.5201 40.4983C31.428 40.7208 31.293 40.923 31.1227 41.0932C30.9525 41.2635 30.7503 41.3985 30.5278 41.4906C30.3053 41.5826 30.0668 41.6299 29.826 41.6297V41.6298Z" fill="url(#paint1_linear_404_66)"/>
</g>
<defs>
<linearGradient id="paint0_linear_404_66" x1="7.06762" y1="6.77584" x2="27.9127" y2="27.413" gradientUnits="userSpaceOnUse">
<stop stop-color="#387EB8"/>
<stop offset="1" stop-color="#366994"/>
</linearGradient>
<linearGradient id="paint1_linear_404_66" x1="19.861" y1="20.0272" x2="42.2463" y2="41.1887" gradientUnits="userSpaceOnUse">
<stop stop-color="#FFE052"/>
<stop offset="1" stop-color="#FFC331"/>
</linearGradient>
<clipPath id="clip0_404_66">
<rect width="42.1647" height="42" fill="white" transform="translate(3 3)"/>
</clipPath>
</defs>
</svg>
