<svg width="48" height="48" viewBox="0 0 48 48" fill="none" xmlns="http://www.w3.org/2000/svg">
<g clip-path="url(#clip0_404_48)">
<path d="M39.1024 16.4691C38.6093 16.2986 38.1119 16.1406 37.6108 15.9953C37.695 15.6486 37.7725 15.3062 37.8413 14.9697C38.9705 9.44499 38.2323 4.99414 35.7108 3.52871C33.2932 2.12385 29.3395 3.58873 25.3464 7.09121C24.9529 7.43701 24.5681 7.79278 24.1924 8.15817C23.9409 7.9152 23.685 7.67694 23.4247 7.44352C19.2398 3.69857 15.0451 2.1202 12.5263 3.58983C10.1109 4.99906 9.3957 9.18317 10.4123 14.4191C10.5135 14.9377 10.6277 15.4536 10.7548 15.9663C10.1611 16.1363 9.58813 16.3173 9.03981 16.51C4.13334 18.2341 1 20.936 1 23.7386C1 26.6332 4.36379 29.5365 9.47409 31.2969C9.88839 31.4391 10.3061 31.5708 10.727 31.6919C10.5903 32.2442 10.469 32.8001 10.3631 33.3592C9.39389 38.5042 10.1508 42.5894 12.5596 43.9897C15.0476 45.4358 19.2235 43.9496 23.2895 40.3672C23.6192 40.076 23.9416 39.7765 24.2565 39.469C24.6634 39.8647 25.0811 40.2488 25.5092 40.621C29.4479 44.0368 33.3377 45.4161 35.7443 44.012C38.2299 42.5617 39.0378 38.1731 37.989 32.8337C37.9063 32.4154 37.8137 31.9992 37.7111 31.5854C38.0044 31.4978 38.2922 31.4077 38.5728 31.3139C43.8855 29.5399 47.3421 26.6718 47.3421 23.7386C47.3421 20.9258 44.1076 18.2057 39.1024 16.4691V16.4691ZM37.9502 29.4201C37.6968 29.5046 37.4368 29.5861 37.1718 29.6655C36.5853 27.7941 35.7939 25.8043 34.8252 23.7483C35.7495 21.7413 36.5105 19.7769 37.0806 17.9177C37.5547 18.056 38.0147 18.2018 38.4582 18.3556C42.7466 19.8437 45.3624 22.0435 45.3624 23.7386C45.3624 25.5441 42.5374 27.8881 37.9502 29.4201V29.4201ZM36.0469 33.2212C36.5107 35.5821 36.5768 37.7168 36.2696 39.3856C35.9937 40.8852 35.4387 41.8848 34.7523 42.2853C33.2919 43.1373 30.1687 42.0299 26.8004 39.1085C26.4022 38.7625 26.0137 38.4053 25.6352 38.0375C26.9411 36.5982 28.2461 34.9249 29.5198 33.0665C31.7601 32.8662 33.8766 32.5385 35.796 32.0913C35.8905 32.4757 35.9745 32.8527 36.0469 33.2212V33.2212ZM16.799 42.1381C15.3722 42.6458 14.2357 42.6604 13.5488 42.2612C12.087 41.4116 11.4793 38.1313 12.3082 33.7314C12.4067 33.2114 12.5196 32.6943 12.6465 32.1807C14.5447 32.604 16.6459 32.9083 18.8915 33.0919C20.1739 34.9103 21.5165 36.5818 22.8697 38.0454C22.5821 38.3258 22.2877 38.5991 21.9868 38.8649C20.1887 40.449 18.387 41.5728 16.799 42.1381V42.1381ZM10.1146 29.4089C7.85483 28.6304 5.98866 27.6188 4.70954 26.5148C3.56004 25.5228 2.97986 24.5377 2.97986 23.7386C2.97986 22.0378 5.49555 19.8685 9.6915 18.3941C10.2007 18.2153 10.7337 18.0466 11.2867 17.8882C11.8667 19.7893 12.6273 21.7771 13.5453 23.7871C12.6154 25.8269 11.8439 27.8465 11.2583 29.77C10.8741 29.6591 10.4928 29.5387 10.1146 29.4089V29.4089ZM12.3553 14.0358C11.4844 9.5499 12.0627 6.16601 13.5183 5.31671C15.0686 4.41213 18.4969 5.70186 22.1103 8.93559C22.3459 9.14694 22.5777 9.36256 22.8056 9.58237C21.4591 11.0396 20.1288 12.6986 18.8578 14.5063C16.6783 14.7099 14.592 15.0369 12.6739 15.4749C12.5557 14.998 12.4495 14.5182 12.3553 14.036V14.0358ZM32.3452 19.0108C31.8921 18.2221 31.4223 17.4432 30.9359 16.6749C32.4145 16.8634 33.8312 17.1135 35.1616 17.4193C34.7622 18.7096 34.2644 20.0584 33.6784 21.4414C33.2501 20.6223 32.8056 19.812 32.3452 19.0108V19.0108ZM24.1933 11.0084C25.1064 12.0055 26.0209 13.1186 26.9204 14.3264C25.0957 14.2396 23.268 14.2392 21.4432 14.3253C22.3436 13.1286 23.2659 12.017 24.1933 11.0084ZM15.9891 19.0245C15.5345 19.8192 15.0983 20.6245 14.6809 21.4397C14.1045 20.0617 13.6112 18.7067 13.2084 17.3981C14.5306 17.1 15.9406 16.8563 17.4098 16.6713C16.918 17.4443 16.4444 18.2289 15.9891 19.0243V19.0245ZM17.452 30.9479C15.9341 30.7771 14.5029 30.546 13.1811 30.2559C13.5902 28.924 14.0944 27.5401 14.6832 26.1325C15.1023 26.9484 15.5403 27.7542 15.9969 28.5492C16.4665 29.3666 16.9527 30.1672 17.452 30.9479ZM24.248 36.6093C23.3096 35.5891 22.3737 34.4602 21.4597 33.2462C22.3471 33.2813 23.2516 33.2991 24.1711 33.2991C25.1156 33.2991 26.0494 33.2778 26.9684 33.2366C26.066 34.4725 25.1549 35.6029 24.248 36.6093ZM33.6971 26.0606C34.3165 27.4837 34.8386 28.8603 35.2532 30.1694C33.9096 30.4785 32.4589 30.7273 30.9303 30.9121C31.4201 30.1295 31.8944 29.3372 32.353 28.5356C32.8192 27.7207 33.2673 26.8956 33.6971 26.0606V26.0606ZM30.6381 27.5387C29.9362 28.7677 29.1947 29.9734 28.415 31.1539C27.0026 31.2547 25.587 31.3048 24.1711 31.304C22.7288 31.304 21.3261 31.2588 19.9753 31.1705C19.1752 29.9928 18.4196 28.7849 17.7101 27.5496H17.7103C17.0042 26.3208 16.3446 25.0655 15.733 23.7862C16.343 22.5067 17.0006 21.2507 17.7043 20.021L17.7042 20.0212C18.4076 18.7912 19.1572 17.5885 19.9512 16.4158C21.3293 16.3107 22.7426 16.256 24.1709 16.256H24.1711C25.6058 16.256 27.0209 16.3113 28.3987 16.4171C29.1847 17.588 29.9295 18.7866 30.6316 20.0104C31.3377 21.2374 32.004 22.4873 32.6294 23.7579C32.0104 25.0416 31.3462 26.3026 30.6381 27.5387V27.5387ZM34.722 5.25723C36.2738 6.15926 36.8773 9.79675 35.9023 14.5669C35.84 14.8712 35.7702 15.1812 35.6941 15.4956C33.7713 15.0482 31.6835 14.7156 29.4977 14.5089C28.2244 12.6813 26.9049 11.0197 25.5803 9.58128C25.9275 9.24402 26.2829 8.91551 26.6462 8.59605C30.0675 5.59531 33.2651 4.41048 34.722 5.25723V5.25723ZM24.1711 19.5678C26.4565 19.5678 28.3093 21.4352 28.3093 23.7386C28.3093 26.042 26.4565 27.9094 24.1711 27.9094C21.8856 27.9094 20.0328 26.042 20.0328 23.7386C20.0328 21.4352 21.8856 19.5678 24.1711 19.5678V19.5678Z" fill="#00D8FF"/>
</g>
<defs>
<clipPath id="clip0_404_48">
<rect width="46.3421" height="41.5984" fill="white" transform="translate(1 3)"/>
</clipPath>
</defs>
</svg>
